# xmcd
#
# Track frame offsets:
# 150
# 16427
# 30172
# 45560
# 60459
# 76574
# 90459
# 105760
# 120112
# 140310
# 164895
# 180878
# 197402
# 210779
# 223340
# 236473
# 255627
# 271129
# 286283
# 300023
# 318113
#
# Disc length: 4361 seconds
#
#
# Revision: 0
# Processed by: cddbd v1.5.2PL0 Copyright (c) Steve Scherf et al.
# Submitted via: FreeRIP 2.951 
#
DISCID=f1110715
DTITLE=Intocable y conjunto primavera - Frente a frente
DYEAR=1900
DGENRE=
TTITLE0=El amigo que se fue
TTITLE1=Morir de amor
TTITLE2=Vuelvo a creer en ti
TTITLE3=Enamorado de ti
TTITLE4=Un engaño
TTITLE5=Jugando al amor
TTITLE6=Costumbre
TTITLE7=Dime, dime
TTITLE8=Fuerte no soy
TTITLE9=Maldita seas
TTITLE10=Contigo he fallado
TTITLE11=Y otra vez
TTITLE12=Soñador eterno
TTITLE13=No como amigo
TTITLE14=Hoy duele
TTITLE15=Cinco lagrimas
TTITLE16=Contigo
TTITLE17=En cada gota de mi sangre
TTITLE18=Estoy enamorado
TTITLE19=Mexico, ra, ra, ra
TTITLE20=Agradecimiento
EXTD=
EXTT0=
EXTT1=
EXTT2=
EXTT3=
EXTT4=
EXTT5=
EXTT6=
EXTT7=
EXTT8=
EXTT9=
EXTT10=
EXTT11=
EXTT12=
EXTT13=
EXTT14=
EXTT15=
EXTT16=
EXTT17=
EXTT18=
EXTT19=
EXTT20=
PLAYORDER=
